<mxfile host="app.diagrams.net" modified="2021-09-27T20:21:05.291Z" agent="5.0 (Windows NT 10.0; Win64; x64) AppleWebKit/537.36 (KHTML, like Gecko) Chrome/92.0.4515.159 Safari/537.36" etag="QrO-r6cDRGLiBSjvwTv2" version="15.2.9" type="github">
  <diagram id="R2lEEEUBdFMjLlhIrx00" name="Page-1">
    <mxGraphModel dx="1038" dy="547" grid="1" gridSize="10" guides="1" tooltips="1" connect="1" arrows="1" fold="1" page="1" pageScale="1" pageWidth="850" pageHeight="1100" math="0" shadow="0" extFonts="Permanent Marker^https://fonts.googleapis.com/css?family=Permanent+Marker">
      <root>
        <mxCell id="0" />
        <mxCell id="1" parent="0" />
        <mxCell id="81HxJ23cOC9FS0kMJOBd-18" value="" style="group" vertex="1" connectable="0" parent="1">
          <mxGeometry x="190" y="199" width="120" height="60" as="geometry" />
        </mxCell>
        <mxCell id="81HxJ23cOC9FS0kMJOBd-16" value="" style="rounded=0;whiteSpace=wrap;html=1;" vertex="1" parent="81HxJ23cOC9FS0kMJOBd-18">
          <mxGeometry width="120" height="60" as="geometry" />
        </mxCell>
        <mxCell id="81HxJ23cOC9FS0kMJOBd-17" value="Airport" style="text;html=1;strokeColor=none;fillColor=none;align=center;verticalAlign=middle;whiteSpace=wrap;rounded=0;" vertex="1" parent="81HxJ23cOC9FS0kMJOBd-18">
          <mxGeometry x="30" y="15" width="60" height="30" as="geometry" />
        </mxCell>
        <mxCell id="81HxJ23cOC9FS0kMJOBd-19" value="" style="group" vertex="1" connectable="0" parent="1">
          <mxGeometry x="369" y="409" width="120" height="60" as="geometry" />
        </mxCell>
        <mxCell id="81HxJ23cOC9FS0kMJOBd-20" value="" style="rounded=0;whiteSpace=wrap;html=1;" vertex="1" parent="81HxJ23cOC9FS0kMJOBd-19">
          <mxGeometry width="120" height="60" as="geometry" />
        </mxCell>
        <mxCell id="81HxJ23cOC9FS0kMJOBd-21" value="Flight" style="text;html=1;strokeColor=none;fillColor=none;align=center;verticalAlign=middle;whiteSpace=wrap;rounded=0;" vertex="1" parent="81HxJ23cOC9FS0kMJOBd-19">
          <mxGeometry x="30" y="15" width="60" height="30" as="geometry" />
        </mxCell>
        <mxCell id="81HxJ23cOC9FS0kMJOBd-22" value="" style="group" vertex="1" connectable="0" parent="1">
          <mxGeometry x="510" y="540" width="130" height="70" as="geometry" />
        </mxCell>
        <mxCell id="81HxJ23cOC9FS0kMJOBd-23" value="" style="rounded=0;whiteSpace=wrap;html=1;" vertex="1" parent="81HxJ23cOC9FS0kMJOBd-22">
          <mxGeometry width="130" height="70" as="geometry" />
        </mxCell>
        <mxCell id="81HxJ23cOC9FS0kMJOBd-24" value="Airplane type" style="text;html=1;strokeColor=none;fillColor=none;align=center;verticalAlign=middle;whiteSpace=wrap;rounded=0;" vertex="1" parent="81HxJ23cOC9FS0kMJOBd-22">
          <mxGeometry x="32.5" y="17.5" width="65" height="35" as="geometry" />
        </mxCell>
        <mxCell id="81HxJ23cOC9FS0kMJOBd-25" value="" style="group" vertex="1" connectable="0" parent="1">
          <mxGeometry x="100" y="480" width="120" height="60" as="geometry" />
        </mxCell>
        <mxCell id="81HxJ23cOC9FS0kMJOBd-26" value="" style="rounded=0;whiteSpace=wrap;html=1;" vertex="1" parent="81HxJ23cOC9FS0kMJOBd-25">
          <mxGeometry width="120" height="60" as="geometry" />
        </mxCell>
        <mxCell id="81HxJ23cOC9FS0kMJOBd-27" value="Gate" style="text;html=1;strokeColor=none;fillColor=none;align=center;verticalAlign=middle;whiteSpace=wrap;rounded=0;" vertex="1" parent="81HxJ23cOC9FS0kMJOBd-25">
          <mxGeometry x="30" y="15" width="60" height="30" as="geometry" />
        </mxCell>
        <mxCell id="81HxJ23cOC9FS0kMJOBd-33" value="" style="group" vertex="1" connectable="0" parent="1">
          <mxGeometry x="650" y="199" width="120" height="60" as="geometry" />
        </mxCell>
        <mxCell id="81HxJ23cOC9FS0kMJOBd-29" value="" style="rounded=0;whiteSpace=wrap;html=1;" vertex="1" parent="81HxJ23cOC9FS0kMJOBd-33">
          <mxGeometry width="120" height="60" as="geometry" />
        </mxCell>
        <mxCell id="81HxJ23cOC9FS0kMJOBd-32" value="Terminal" style="text;html=1;strokeColor=none;fillColor=none;align=center;verticalAlign=middle;whiteSpace=wrap;rounded=0;" vertex="1" parent="81HxJ23cOC9FS0kMJOBd-33">
          <mxGeometry x="30" y="15" width="60" height="30" as="geometry" />
        </mxCell>
        <mxCell id="81HxJ23cOC9FS0kMJOBd-34" value="country" style="ellipse;whiteSpace=wrap;html=1;" vertex="1" parent="1">
          <mxGeometry x="330" y="80" width="100" height="70" as="geometry" />
        </mxCell>
        <mxCell id="81HxJ23cOC9FS0kMJOBd-35" value="&lt;u&gt;Ariport_Code&lt;/u&gt;" style="ellipse;whiteSpace=wrap;html=1;" vertex="1" parent="1">
          <mxGeometry x="70" y="80" width="100" height="70" as="geometry" />
        </mxCell>
        <mxCell id="81HxJ23cOC9FS0kMJOBd-36" value="address" style="ellipse;whiteSpace=wrap;html=1;" vertex="1" parent="1">
          <mxGeometry x="200" y="80" width="100" height="70" as="geometry" />
        </mxCell>
        <mxCell id="81HxJ23cOC9FS0kMJOBd-37" value="" style="endArrow=none;html=1;exitX=0.5;exitY=0;exitDx=0;exitDy=0;entryX=0.5;entryY=1;entryDx=0;entryDy=0;" edge="1" parent="1" source="81HxJ23cOC9FS0kMJOBd-16" target="81HxJ23cOC9FS0kMJOBd-35">
          <mxGeometry width="50" height="50" relative="1" as="geometry">
            <mxPoint x="400" y="269" as="sourcePoint" />
            <mxPoint x="450" y="219" as="targetPoint" />
          </mxGeometry>
        </mxCell>
        <mxCell id="81HxJ23cOC9FS0kMJOBd-38" value="" style="endArrow=none;html=1;entryX=0.5;entryY=1;entryDx=0;entryDy=0;exitX=0.5;exitY=0;exitDx=0;exitDy=0;" edge="1" parent="1" source="81HxJ23cOC9FS0kMJOBd-16" target="81HxJ23cOC9FS0kMJOBd-36">
          <mxGeometry width="50" height="50" relative="1" as="geometry">
            <mxPoint x="400" y="269" as="sourcePoint" />
            <mxPoint x="450" y="219" as="targetPoint" />
          </mxGeometry>
        </mxCell>
        <mxCell id="81HxJ23cOC9FS0kMJOBd-39" value="" style="endArrow=none;html=1;exitX=0.5;exitY=0;exitDx=0;exitDy=0;entryX=0.5;entryY=1;entryDx=0;entryDy=0;" edge="1" parent="1" source="81HxJ23cOC9FS0kMJOBd-16" target="81HxJ23cOC9FS0kMJOBd-34">
          <mxGeometry width="50" height="50" relative="1" as="geometry">
            <mxPoint x="400" y="269" as="sourcePoint" />
            <mxPoint x="450" y="219" as="targetPoint" />
          </mxGeometry>
        </mxCell>
        <mxCell id="81HxJ23cOC9FS0kMJOBd-40" value="Terminal_ID" style="ellipse;whiteSpace=wrap;html=1;" vertex="1" parent="1">
          <mxGeometry x="660" y="90" width="100" height="70" as="geometry" />
        </mxCell>
        <mxCell id="81HxJ23cOC9FS0kMJOBd-43" value="" style="endArrow=none;html=1;entryX=0.5;entryY=1;entryDx=0;entryDy=0;exitX=0.5;exitY=0;exitDx=0;exitDy=0;" edge="1" parent="1" source="81HxJ23cOC9FS0kMJOBd-29" target="81HxJ23cOC9FS0kMJOBd-40">
          <mxGeometry width="50" height="50" relative="1" as="geometry">
            <mxPoint x="490" y="269" as="sourcePoint" />
            <mxPoint x="540" y="219" as="targetPoint" />
          </mxGeometry>
        </mxCell>
        <mxCell id="81HxJ23cOC9FS0kMJOBd-45" value="&lt;u&gt;Airplane_type_name&lt;/u&gt;" style="ellipse;whiteSpace=wrap;html=1;" vertex="1" parent="1">
          <mxGeometry x="520" y="635" width="130" height="90" as="geometry" />
        </mxCell>
        <mxCell id="81HxJ23cOC9FS0kMJOBd-46" value="" style="endArrow=none;html=1;entryX=0.563;entryY=1.02;entryDx=0;entryDy=0;entryPerimeter=0;exitX=0.5;exitY=0;exitDx=0;exitDy=0;" edge="1" parent="1" source="81HxJ23cOC9FS0kMJOBd-45" target="81HxJ23cOC9FS0kMJOBd-23">
          <mxGeometry width="50" height="50" relative="1" as="geometry">
            <mxPoint x="350" y="595" as="sourcePoint" />
            <mxPoint x="400" y="545" as="targetPoint" />
          </mxGeometry>
        </mxCell>
        <mxCell id="81HxJ23cOC9FS0kMJOBd-48" value="size" style="ellipse;whiteSpace=wrap;html=1;" vertex="1" parent="1">
          <mxGeometry x="680" y="645" width="100" height="70" as="geometry" />
        </mxCell>
        <mxCell id="81HxJ23cOC9FS0kMJOBd-49" value="" style="endArrow=none;html=1;entryX=0.569;entryY=0.997;entryDx=0;entryDy=0;entryPerimeter=0;exitX=0.5;exitY=0;exitDx=0;exitDy=0;" edge="1" parent="1" source="81HxJ23cOC9FS0kMJOBd-48" target="81HxJ23cOC9FS0kMJOBd-23">
          <mxGeometry width="50" height="50" relative="1" as="geometry">
            <mxPoint x="350" y="595" as="sourcePoint" />
            <mxPoint x="400" y="545" as="targetPoint" />
          </mxGeometry>
        </mxCell>
        <mxCell id="81HxJ23cOC9FS0kMJOBd-50" value="Gate_number" style="ellipse;whiteSpace=wrap;html=1;" vertex="1" parent="1">
          <mxGeometry x="110" y="580" width="100" height="70" as="geometry" />
        </mxCell>
        <mxCell id="81HxJ23cOC9FS0kMJOBd-52" value="&lt;u&gt;airline number&lt;/u&gt;" style="ellipse;whiteSpace=wrap;html=1;" vertex="1" parent="1">
          <mxGeometry x="490" y="290" width="100" height="70" as="geometry" />
        </mxCell>
        <mxCell id="81HxJ23cOC9FS0kMJOBd-55" value="" style="endArrow=none;html=1;exitX=0.5;exitY=1;exitDx=0;exitDy=0;" edge="1" parent="1" source="81HxJ23cOC9FS0kMJOBd-52">
          <mxGeometry width="50" height="50" relative="1" as="geometry">
            <mxPoint x="429" y="380" as="sourcePoint" />
            <mxPoint x="429" y="410" as="targetPoint" />
          </mxGeometry>
        </mxCell>
        <mxCell id="81HxJ23cOC9FS0kMJOBd-56" value="date of flight" style="ellipse;whiteSpace=wrap;html=1;" vertex="1" parent="1">
          <mxGeometry x="600" y="290" width="100" height="70" as="geometry" />
        </mxCell>
        <mxCell id="81HxJ23cOC9FS0kMJOBd-57" value="" style="endArrow=none;html=1;exitX=0.5;exitY=1;exitDx=0;exitDy=0;" edge="1" parent="1" source="81HxJ23cOC9FS0kMJOBd-56">
          <mxGeometry width="50" height="50" relative="1" as="geometry">
            <mxPoint x="539" y="380" as="sourcePoint" />
            <mxPoint x="429" y="410" as="targetPoint" />
          </mxGeometry>
        </mxCell>
        <mxCell id="81HxJ23cOC9FS0kMJOBd-58" value="airline company name" style="ellipse;whiteSpace=wrap;html=1;" vertex="1" parent="1">
          <mxGeometry x="380" y="290" width="100" height="70" as="geometry" />
        </mxCell>
        <mxCell id="81HxJ23cOC9FS0kMJOBd-59" value="" style="endArrow=none;html=1;exitX=0.5;exitY=1;exitDx=0;exitDy=0;" edge="1" parent="1" source="81HxJ23cOC9FS0kMJOBd-58">
          <mxGeometry width="50" height="50" relative="1" as="geometry">
            <mxPoint x="319" y="380" as="sourcePoint" />
            <mxPoint x="429" y="410" as="targetPoint" />
          </mxGeometry>
        </mxCell>
        <mxCell id="81HxJ23cOC9FS0kMJOBd-60" value="locate" style="rhombus;whiteSpace=wrap;html=1;" vertex="1" parent="1">
          <mxGeometry x="385" y="189" width="80" height="80" as="geometry" />
        </mxCell>
        <mxCell id="81HxJ23cOC9FS0kMJOBd-61" value="locate" style="rhombus;whiteSpace=wrap;html=1;" vertex="1" parent="1">
          <mxGeometry x="120" y="360" width="80" height="80" as="geometry" />
        </mxCell>
        <mxCell id="81HxJ23cOC9FS0kMJOBd-62" value="" style="endArrow=none;html=1;entryX=1;entryY=0.5;entryDx=0;entryDy=0;exitX=0;exitY=0.5;exitDx=0;exitDy=0;" edge="1" parent="1" source="81HxJ23cOC9FS0kMJOBd-29" target="81HxJ23cOC9FS0kMJOBd-60">
          <mxGeometry width="50" height="50" relative="1" as="geometry">
            <mxPoint x="400" y="449" as="sourcePoint" />
            <mxPoint x="450" y="399" as="targetPoint" />
          </mxGeometry>
        </mxCell>
        <mxCell id="81HxJ23cOC9FS0kMJOBd-63" value="" style="endArrow=none;html=1;entryX=0.5;entryY=1;entryDx=0;entryDy=0;exitX=0.5;exitY=0;exitDx=0;exitDy=0;" edge="1" parent="1" source="81HxJ23cOC9FS0kMJOBd-26" target="81HxJ23cOC9FS0kMJOBd-61">
          <mxGeometry width="50" height="50" relative="1" as="geometry">
            <mxPoint x="570" y="280" as="sourcePoint" />
            <mxPoint x="475" y="270" as="targetPoint" />
          </mxGeometry>
        </mxCell>
        <mxCell id="81HxJ23cOC9FS0kMJOBd-64" value="" style="endArrow=classic;html=1;entryX=0.5;entryY=1;entryDx=0;entryDy=0;exitX=0.5;exitY=0;exitDx=0;exitDy=0;" edge="1" parent="1" source="81HxJ23cOC9FS0kMJOBd-61" target="81HxJ23cOC9FS0kMJOBd-16">
          <mxGeometry width="50" height="50" relative="1" as="geometry">
            <mxPoint x="400" y="490" as="sourcePoint" />
            <mxPoint x="450" y="440" as="targetPoint" />
          </mxGeometry>
        </mxCell>
        <mxCell id="81HxJ23cOC9FS0kMJOBd-67" value="" style="endArrow=classic;html=1;entryX=1;entryY=0.5;entryDx=0;entryDy=0;exitX=0;exitY=0.5;exitDx=0;exitDy=0;" edge="1" parent="1" source="81HxJ23cOC9FS0kMJOBd-60" target="81HxJ23cOC9FS0kMJOBd-16">
          <mxGeometry width="50" height="50" relative="1" as="geometry">
            <mxPoint x="400" y="449" as="sourcePoint" />
            <mxPoint x="450" y="399" as="targetPoint" />
          </mxGeometry>
        </mxCell>
        <mxCell id="81HxJ23cOC9FS0kMJOBd-68" value="at" style="rhombus;whiteSpace=wrap;html=1;" vertex="1" parent="1">
          <mxGeometry x="250" y="469" width="80" height="80" as="geometry" />
        </mxCell>
        <mxCell id="81HxJ23cOC9FS0kMJOBd-69" value="" style="endArrow=none;html=1;exitX=0.5;exitY=0;exitDx=0;exitDy=0;entryX=0.5;entryY=1;entryDx=0;entryDy=0;" edge="1" parent="1" source="81HxJ23cOC9FS0kMJOBd-50" target="81HxJ23cOC9FS0kMJOBd-26">
          <mxGeometry width="50" height="50" relative="1" as="geometry">
            <mxPoint x="300" y="520" as="sourcePoint" />
            <mxPoint x="350" y="470" as="targetPoint" />
          </mxGeometry>
        </mxCell>
        <mxCell id="81HxJ23cOC9FS0kMJOBd-70" value="" style="endArrow=none;html=1;exitX=1;exitY=0.5;exitDx=0;exitDy=0;entryX=0;entryY=0.5;entryDx=0;entryDy=0;" edge="1" parent="1" source="81HxJ23cOC9FS0kMJOBd-68" target="81HxJ23cOC9FS0kMJOBd-20">
          <mxGeometry width="50" height="50" relative="1" as="geometry">
            <mxPoint x="404" y="566" as="sourcePoint" />
            <mxPoint x="454" y="516" as="targetPoint" />
          </mxGeometry>
        </mxCell>
        <mxCell id="81HxJ23cOC9FS0kMJOBd-71" value="" style="endArrow=classic;html=1;exitX=0;exitY=0.5;exitDx=0;exitDy=0;entryX=1;entryY=0.5;entryDx=0;entryDy=0;" edge="1" parent="1" source="81HxJ23cOC9FS0kMJOBd-68" target="81HxJ23cOC9FS0kMJOBd-26">
          <mxGeometry width="50" height="50" relative="1" as="geometry">
            <mxPoint x="440" y="440" as="sourcePoint" />
            <mxPoint x="490" y="390" as="targetPoint" />
          </mxGeometry>
        </mxCell>
        <mxCell id="81HxJ23cOC9FS0kMJOBd-72" value="at" style="rhombus;whiteSpace=wrap;html=1;" vertex="1" parent="1">
          <mxGeometry x="684" y="400" width="80" height="80" as="geometry" />
        </mxCell>
        <mxCell id="81HxJ23cOC9FS0kMJOBd-73" value="" style="endArrow=none;html=1;entryX=0;entryY=0.5;entryDx=0;entryDy=0;exitX=1;exitY=0.5;exitDx=0;exitDy=0;" edge="1" parent="1" source="81HxJ23cOC9FS0kMJOBd-20" target="81HxJ23cOC9FS0kMJOBd-72">
          <mxGeometry width="50" height="50" relative="1" as="geometry">
            <mxPoint x="404" y="566" as="sourcePoint" />
            <mxPoint x="454" y="516" as="targetPoint" />
          </mxGeometry>
        </mxCell>
        <mxCell id="81HxJ23cOC9FS0kMJOBd-76" value="" style="endArrow=classic;html=1;entryX=0.603;entryY=1.01;entryDx=0;entryDy=0;entryPerimeter=0;exitX=0.5;exitY=0;exitDx=0;exitDy=0;" edge="1" parent="1" source="81HxJ23cOC9FS0kMJOBd-72" target="81HxJ23cOC9FS0kMJOBd-29">
          <mxGeometry width="50" height="50" relative="1" as="geometry">
            <mxPoint x="490" y="490" as="sourcePoint" />
            <mxPoint x="540" y="440" as="targetPoint" />
          </mxGeometry>
        </mxCell>
        <mxCell id="81HxJ23cOC9FS0kMJOBd-77" value="have" style="rhombus;whiteSpace=wrap;html=1;" vertex="1" parent="1">
          <mxGeometry x="389" y="540" width="80" height="80" as="geometry" />
        </mxCell>
        <mxCell id="81HxJ23cOC9FS0kMJOBd-78" value="" style="endArrow=none;html=1;exitX=0.5;exitY=0;exitDx=0;exitDy=0;entryX=0.5;entryY=1;entryDx=0;entryDy=0;" edge="1" parent="1" source="81HxJ23cOC9FS0kMJOBd-77" target="81HxJ23cOC9FS0kMJOBd-20">
          <mxGeometry width="50" height="50" relative="1" as="geometry">
            <mxPoint x="400" y="490" as="sourcePoint" />
            <mxPoint x="450" y="440" as="targetPoint" />
          </mxGeometry>
        </mxCell>
        <mxCell id="81HxJ23cOC9FS0kMJOBd-81" value="" style="endArrow=classic;html=1;entryX=0;entryY=0.5;entryDx=0;entryDy=0;exitX=1;exitY=0.5;exitDx=0;exitDy=0;" edge="1" parent="1" source="81HxJ23cOC9FS0kMJOBd-77" target="81HxJ23cOC9FS0kMJOBd-23">
          <mxGeometry width="50" height="50" relative="1" as="geometry">
            <mxPoint x="480" y="580" as="sourcePoint" />
            <mxPoint x="519" y="530" as="targetPoint" />
          </mxGeometry>
        </mxCell>
        <mxCell id="81HxJ23cOC9FS0kMJOBd-84" value="from" style="rhombus;whiteSpace=wrap;html=1;" vertex="1" parent="1">
          <mxGeometry x="210" y="399" width="80" height="80" as="geometry" />
        </mxCell>
        <mxCell id="81HxJ23cOC9FS0kMJOBd-85" value="to" style="rhombus;whiteSpace=wrap;html=1;" vertex="1" parent="1">
          <mxGeometry x="260" y="310" width="80" height="80" as="geometry" />
        </mxCell>
        <mxCell id="81HxJ23cOC9FS0kMJOBd-86" value="" style="endArrow=none;html=1;exitX=0;exitY=0.5;exitDx=0;exitDy=0;entryX=1;entryY=0.5;entryDx=0;entryDy=0;" edge="1" parent="1" source="81HxJ23cOC9FS0kMJOBd-20" target="81HxJ23cOC9FS0kMJOBd-84">
          <mxGeometry width="50" height="50" relative="1" as="geometry">
            <mxPoint x="400" y="490" as="sourcePoint" />
            <mxPoint x="450" y="440" as="targetPoint" />
          </mxGeometry>
        </mxCell>
        <mxCell id="81HxJ23cOC9FS0kMJOBd-88" value="" style="endArrow=classic;html=1;exitX=0.5;exitY=0;exitDx=0;exitDy=0;entryX=0.5;entryY=1;entryDx=0;entryDy=0;" edge="1" parent="1" source="81HxJ23cOC9FS0kMJOBd-84" target="81HxJ23cOC9FS0kMJOBd-16">
          <mxGeometry width="50" height="50" relative="1" as="geometry">
            <mxPoint x="400" y="490" as="sourcePoint" />
            <mxPoint x="450" y="440" as="targetPoint" />
          </mxGeometry>
        </mxCell>
        <mxCell id="81HxJ23cOC9FS0kMJOBd-89" value="" style="endArrow=none;html=1;exitX=0;exitY=0.5;exitDx=0;exitDy=0;entryX=0.5;entryY=1;entryDx=0;entryDy=0;" edge="1" parent="1" source="81HxJ23cOC9FS0kMJOBd-20" target="81HxJ23cOC9FS0kMJOBd-85">
          <mxGeometry width="50" height="50" relative="1" as="geometry">
            <mxPoint x="400" y="490" as="sourcePoint" />
            <mxPoint x="450" y="440" as="targetPoint" />
          </mxGeometry>
        </mxCell>
        <mxCell id="81HxJ23cOC9FS0kMJOBd-92" value="" style="endArrow=classic;html=1;exitX=0.5;exitY=0;exitDx=0;exitDy=0;" edge="1" parent="1" source="81HxJ23cOC9FS0kMJOBd-85">
          <mxGeometry width="50" height="50" relative="1" as="geometry">
            <mxPoint x="400" y="490" as="sourcePoint" />
            <mxPoint x="250" y="260" as="targetPoint" />
          </mxGeometry>
        </mxCell>
      </root>
    </mxGraphModel>
  </diagram>
</mxfile>
